<svg viewBox="0 0 3412.6 1156.1" version="1.1" xmlns="http://www.w3.org/2000/svg" id="Calque_1">
  
  <defs>
    <style>
      .st0 {
        fill: #080808;
      }
    </style>
  </defs>
  <g data-name="Calque_1" id="Calque_11">
    <g id="Calque_2">
      <path d="M364.8,299.6h19.4c37,0,60.5,26,70.3,78v74.3c0,5.2,3.9,7.7,11.7,7.7,55.6-34.8,125.9-83,210.9-144.6l27.1-3.7c49.6,8.9,74.3,31,74.3,66.3v27.4c0,27.2-61.2,79.3-183.5,156-18.3,13-27.5,20.8-27.5,23.4v4c9.2,9.4,56,30.1,140.6,62.3,31.3,20.5,46.9,42.8,46.9,66.6v15.4c0,37.5-34.3,177.8-83.8,187.1-14.5,0-72.6-142.8-193.4-194.8l-19.8-4c-6.7,88.6-14.5,132.9-23.4,132.9-13.4,20.8-34.2,31.1-62.3,31.1s-60-19.5-74.3-58.6c1.9-80-116.6-141.5-184.3-192-29.2-21.8-25.4-66.7,6.6-84.1l181.7-98.6c0-25.9-107.6-167.5-110.3-204.2,16.1-39.1,144.6,51.8,172.9,51.8l.2.3h0Z" class="st0"></path>
      <path d="M1156.7,429.6c58.1,51.6,87.2,113.8,87.2,186.8s-29.1,135.3-87.2,186.8c-58.1,51.6-128.3,77.3-210.4,77.3s-152.6-25.8-210.6-77.3c-58-51.6-87.1-113.8-87.1-186.8s29-135.3,87.1-186.8c58-51.6,128.2-77.3,210.6-77.3s152.3,25.8,210.4,77.3h0ZM959.9,753.5c10.2-.3,30.2-14,60.1-41,29.9-27,52.6-62.6,68-106.8,5.1-14.9,7.7-29.1,7.7-42.5,0-26.1-9.8-49-29.5-68.6-9.8-9.8-20.7-14.7-32.8-14.7-24.1,0-52.7,20.1-85.7,60.3-42.2-34.4-75.3-51.6-99.5-51.6s-17.3,2.5-23.8,7.4c-21.6,16.5-32.5,41.6-32.5,75.3s.7,16.2,2.2,38,21.9,51.4,61.4,88.9c39.1,37.3,68.6,55.9,88.7,55.9s5.4-.2,15.6-.5h.1Z" class="st0"></path>
      <path d="M1293.1,332h19.4c34.7,0,57.5,22.9,68.3,68.6,1.5,6.2,2,12.7,2,19.1v64.6c0,5.2,3.9,7.7,11.7,7.7,52.7-33,113.6-82.8,192.8-139.9,8.6-6.2,46-49,56.5-50.4l-22.3,43.5-36.3,26.9c7.9-45.4,96.3-101.7,96.3-101.7,42.2,10.1,25.4,107,25.4,139.6v27.4c0,27.2-61.2,79.3-183.5,156-18.3,13-27.5,20.8-27.5,23.4v4c8.8,9.1,52.8,28.7,132,59,6.6,2.5,13,6.1,18.6,10.3,24.6,18.5,36.8,38.4,36.8,59.6v15.4c0,28.5-14.3,48.8-42.9,61.1-19.2,8.2-40.8,8.3-60.5,1.6-31.6-10.8-86.7-33-165.3-66.7-5.7-2.4-11.6-4.3-17.6-5.5l-10.7-2.2c-6.7,88.6,33.2,168.4,24.3,168.4-13.4,20.8-81.9-4.4-110-4.4s-41-8.1-55-24.2c-13.3-15.3-19.3-35.7-18.8-56,2.3-101.3,3.5-180.1,3.5-236.2v-116.9c0-19.8-.8-42.6-2.3-68.6-1.4-23.4,5.9-47,21.9-64.1,12.3-13.1,26.6-19.6,43-19.6l.2.2h0Z" class="st0"></path>
      <path d="M2121,404.8c58.1,51.6,87.2,113.8,87.2,186.8s-29.1,135.3-87.2,186.8c-58.1,51.6-128.3,77.3-210.4,77.3s-152.6-25.8-210.6-77.3c-58-51.6-87.1-113.8-87.1-186.8s29-135.3,87.1-186.8c58-51.6,128.2-77.3,210.6-77.3s152.3,25.8,210.4,77.3ZM1924.2,728.7c10.2-.3,30.2-14,60.1-41s52.6-62.6,68-106.8c5.1-14.9,7.7-29.1,7.7-42.5,0-26.1-9.8-49-29.5-68.6-9.8-9.8-20.7-14.7-32.8-14.7-24.1,0-52.7,20.1-85.7,60.3-42.2-34.4-75.3-51.6-99.5-51.6s-17.3,2.5-23.8,7.4c-21.6,16.5-32.5,41.6-32.5,75.3s.7,16.2,2.2,38,21.9,51.4,61.4,88.9c39.1,37.3,68.6,55.9,88.7,55.9s5.4-.2,15.6-.5h.1Z" class="st0"></path>
      <path d="M2373.5,260.6c126.3,0,212.7,46.2,259.2,138.6.7,1.3,1.2,2.7,1.7,4.1,4.7,14.4,7,30.6,7,48.5,0,40.9-31.7,82.3-95,124.4-16.2,10.8-13.2,35.3,4.9,42.5,77.5,30.5,116.2,61.8,116.2,94s-.3,6.2-1,9.4c-8.7,37.1,72.2,91,41.6,167.7-6.8,17-29.3,20.6-41,6.5-29.7-35.4-76.8-97.9-83.7-97.9-23.4,0-54.5-7.2-93.1-21.8-25.4-9.5-51.7-27.1-79-52.6-16.5-15.4-43.5-2.1-40.6,20.3v.5c2,15.2,3,29.7,3,43.5-1.6,39.5-25,60.2-70.3,61.9-2.7.2-5.4.3-8,.3-37,0-63.8-17.2-80.4-51.5-1.1-2.2-1.8-4.7-2.2-7.1-10.1-65.1-16.5-128.6-19.1-190.7v-2.3c2.1-49.8,5.6-93.3,10.6-130.6,2.1-15.7-11-28.9-26.8-27.2-5.7.6-11.2.9-16.4.9-12.3,0-25.6-2.6-39.8-7.9-14.3-5.2-102.4-147.4-102.4-185.1,0-62.4,145.5,21.5,275.5,11.5h79.1ZM2369.5,471.7c-1.2,16.3,13.9,29,29.9,25.2,54.4-13.1,81.7-25.9,81.7-38.4v-.7c-1.4-13.1-29.3-22.1-83.8-27-13.5-1.2-25.4,8.8-26.4,22.3l-1.3,18.6h0Z" class="st0"></path>
      <path d="M3098.3,429.6c58.1,51.6,253.6,111.1,211.6,170.8-42.1,59.9-153.5,151.3-211.6,202.9-58.1,51.6-128.3,77.3-210.4,77.3s-152.6-25.8-210.6-77.3c-58-51.6-87.1-113.8-87.1-186.8s29-135.3,87.1-186.8c58-51.6,128.2-77.3,210.6-77.3s152.3,25.8,210.4,77.3h0ZM2901.4,753.5c10.2-.3,30.2-14,60.1-41,29.9-27,52.6-62.6,68-106.8,5.1-14.9,7.7-29.1,7.7-42.5,0-26.1-9.8-49-29.5-68.6-9.8-9.8-20.7-14.7-32.8-14.7-24.1,0-52.7,20.1-85.7,60.3-42.2-34.4-75.3-51.6-99.5-51.6s-17.3,2.5-23.8,7.4c-21.6,16.5-32.5,41.6-32.5,75.3s.7,16.2,2.2,38,21.9,51.4,61.4,88.9c39.1,37.3,68.6,55.9,88.7,55.9s5.4-.2,15.6-.5h.1Z" class="st0"></path>
    </g>
  </g>
</svg>